<?xml version="1.0" encoding="UTF-8"?>
<svg width="210mm" height="297mm" version="1.1" viewBox="0 0 210 297" xmlns="http://www.w3.org/2000/svg" xmlns:xlink="http://www.w3.org/1999/xlink">
 <defs>
  <clipPath id="clipPath3933">
   <use width="100%" height="100%" xlink:href="#g3929"/>
  </clipPath>
 </defs>
 <g transform="matrix(.35278 0 0 -.35278 -73.235 105.39)" clip-path="url(#clipPath3933)">
  <g id="g3929">
   <g transform="translate(328.54 148.23)">
    <path d="m0 0c6.497 0 12.679-2.457 16.964-6.742l1.289-1.289 6.625 6.418-1.357 1.33c-6.36 6.233-14.713 9.666-23.521 9.666-19.555 0-33.213-13.556-33.213-32.966 0-19.103 13.968-32.967 33.213-32.967 8.934 0 17.292 3.438 23.534 9.68l1.309 1.309-6.692 6.694-1.31-1.31c-4.443-4.442-10.581-6.989-16.841-6.989-11.738 0-23.583 7.292-23.583 23.583s11.845 23.583 23.583 23.583" fill="#e63323"/>
   </g>
   <g transform="translate(390.76 100.94)">
    <path d="m0 0c-13.378 0-23.089 9.971-23.089 23.707 0 13.665 9.711 23.583 23.089 23.583 16.224 0 23.614-12.257 23.614-23.644 0-11.389-7.39-23.646-23.614-23.646m23.089 46.823c-5.485 6.332-13.742 9.974-23.089 9.974-18.723 0-32.843-14.226-32.843-33.09 0-19.005 14.12-33.337 32.843-33.337 9.195 0 17.218 3.589 23.089 10.221v-9.234h9.754v64.699h-9.754z" fill="#fff"/>
   </g>
   <path transform="translate(548.56 124.59)" d="m0 0c0-11.389-7.39-23.646-23.614-23.646-13.378 0-23.089 9.971-23.089 23.708 0 13.665 9.711 23.583 23.089 23.583 16.224 0 23.614-12.257 23.614-23.645m-0.524 32.41v-9.232c-5.487 6.332-13.743 9.973-23.09 9.973-18.723 0-32.843-14.225-32.843-33.089 0-19.005 14.12-33.337 32.843-33.337 9.195 0 17.218 3.588 23.09 10.22v-9.233h9.753v64.698z" fill="#e63323"/>
   <g transform="translate(451.49 157.99)">
    <path d="m0 0c-5.719 0-11.315-1.429-16.186-4.133l-0.953-0.529v-11.552l2.982 2.296c3.958 3.047 8.853 4.657 14.157 4.657 13.527 0 21.918-7.343 22.771-19.755h-39.91v-9.012h48.944l0.165 1.67c1.075 10.925-1.435 20.097-7.258 26.523-5.749 6.342-14.525 9.835-24.712 9.835" fill="#e63323"/>
   </g>
   <g transform="translate(471.99 109.59)">
    <path d="m0 0c-3.79-5.02-12.22-8.524-20.499-8.524-5.303 0-10.209 1.55-14.188 4.485l-2.951 2.177v-11.929l0.992-0.52c4.795-2.515 10.379-3.845 16.147-3.845 11.274 0 21.917 4.775 27.773 12.461l1.096 1.438-7.222 5.777z" fill="#e63323"/>
   </g>
   <g transform="translate(316.3 61.451)">
    <path d="m0 0c-1.272-1.271-2.96-1.907-4.63-1.907-4.286 0-6.518 2.996-6.537 6.428-0.036 3.395 2.179 6.573 6.537 6.573 1.67 0 3.358-0.636 4.63-1.906l-0.672-0.583c-1.089 1.089-2.524 1.617-3.958 1.617-3.705 0-5.611-2.615-5.593-5.665 0.037-2.978 1.925-5.557 5.593-5.557 1.434 0 2.886 0.545 3.976 1.616z" fill="#fff"/>
   </g>
   <g transform="translate(319 66.044)">
    <path d="m0 0c0.018-2.869 1.833-5.665 5.447-5.665 3.631 0 5.465 2.796 5.465 5.665 0 2.94-1.815 5.646-5.465 5.646-3.649 0-5.465-2.651-5.447-5.646m11.856-0.02c-0.018-3.34-2.142-6.554-6.409-6.554s-6.41 3.232-6.41 6.592c0 3.414 2.125 6.537 6.41 6.537 4.284 0 6.427-3.142 6.409-6.575" fill="#fff"/>
   </g>
   <g transform="translate(333.61 72.398)">
    <path d="m0 0 8.552-10.513v10.513h0.963v-12.709h-0.382l-8.571 10.495v-10.495h-0.979v12.709z" fill="#fff"/>
   </g>
   <g transform="translate(346.93 66.352)">
    <path d="m0 0h7.318v-0.926h-7.318v-5.755h-0.98v12.727h8.552v-0.981h-7.572z" fill="#fff"/>
   </g>
   <g transform="translate(357.62 66.534)">
    <path d="m0 0h7.444v-0.89h-7.444v-5.011h8.024v-0.944h-8.987v12.709h8.771v-0.925h-7.808z" fill="#fff"/>
   </g>
   <g transform="translate(368.8 65.426)">
    <path d="m0 0h4.503c2.215 0 3.196 1.253 3.213 3.032 0.019 1.489-0.998 3.032-3.104 3.032h-4.612zm9.151-5.737h-1.288l-4.395 4.811h-3.468v-4.811h-0.98v12.709h5.592c2.76 0 4.158-1.979 4.177-3.958 0.018-2.07-1.344-3.885-4.122-3.885z" fill="#fff"/>
   </g>
   <g transform="translate(380.54 66.534)">
    <path d="m0 0h7.444v-0.89h-7.444v-5.011h8.024v-0.944h-8.987v12.709h8.771v-0.925h-7.808z" fill="#fff"/>
   </g>
   <g transform="translate(391.54 72.398)">
    <path d="m0 0 8.552-10.513v10.513h0.963v-12.709h-0.381l-8.571 10.495v-10.495h-0.98v12.709z" fill="#fff"/>
   </g>
   <g transform="translate(414.37 61.451)">
    <path d="m0 0c-1.271-1.271-2.96-1.907-4.63-1.907-4.285 0-6.518 2.996-6.536 6.428-0.037 3.395 2.178 6.573 6.536 6.573 1.67 0 3.359-0.636 4.63-1.906l-0.672-0.583c-1.089 1.089-2.524 1.617-3.958 1.617-3.704 0-5.611-2.615-5.592-5.665 0.036-2.978 1.924-5.557 5.592-5.557 1.434 0 2.886 0.545 3.977 1.616z" fill="#fff"/>
   </g>
   <path d="m416.69 72.398h0.963v-12.709h-0.963z" fill="#fff"/>
   <g transform="translate(428.78 63.72)">
    <path d="m0 0-3.413 7.734-3.414-7.734zm1.78-4.031-1.398 3.123h-7.59l-1.379-3.123h-1.054l5.702 12.709h1.071l5.701-12.709z" fill="#fff"/>
   </g>
   <g transform="translate(438.92 71.473)">
    <path d="m0 0v-10.841h3.323c3.777 0 5.519 2.833 5.465 5.557-0.055 2.651-1.797 5.284-5.465 5.284zm9.768-5.284c0.073-3.233-1.997-6.5-6.445-6.5h-4.303v12.709h4.303c4.302 0 6.373-3.086 6.445-6.209" fill="#fff"/>
   </g>
   <g transform="translate(451.87 66.534)">
    <path d="m0 0h7.444v-0.89h-7.444v-5.011h8.024v-0.944h-8.987v12.709h8.77v-0.925h-7.807z" fill="#fff"/>
   </g>
   <g transform="translate(475.37 63.72)">
    <path d="m0 0-3.413 7.734-3.414-7.734zm1.78-4.031-1.399 3.123h-7.589l-1.379-3.123h-1.054l5.702 12.709h1.071l5.701-12.709z" fill="#fff"/>
   </g>
   <g transform="translate(489.26 70.056)">
    <path d="m0 0c-1.108 1.089-2.651 1.634-4.085 1.634-3.723 0-5.629-2.723-5.61-5.665 0-2.995 1.906-5.574 5.61-5.574 1.362 0 2.778 0.473 3.868 1.471v3.559h-4.431v0.853h5.356v-4.757c-1.325-1.326-2.905-2.052-4.793-2.052-4.322 0-6.555 3.014-6.555 6.482-0.018 3.976 2.687 6.572 6.555 6.572 1.67 0 3.359-0.634 4.647-1.906z" fill="#fff"/>
   </g>
   <path d="m492.63 72.398h0.963v-12.709h-0.963z" fill="#fff"/>
   <g transform="translate(497.37 72.398)">
    <path d="m0 0v-11.783h7.154v-0.926h-8.134v12.709z" fill="#fff"/>
   </g>
   <path d="m506.38 72.398h0.963v-12.709h-0.963z" fill="#fff"/>
   <g transform="translate(511.03 71.473)">
    <path d="m0 0v-10.841h3.323c3.777 0 5.519 2.833 5.465 5.557-0.054 2.651-1.797 5.284-5.465 5.284zm9.769-5.284c0.072-3.233-1.998-6.5-6.446-6.5h-4.303v12.709h4.303c4.303 0 6.373-3.086 6.446-6.209" fill="#fff"/>
   </g>
   <g transform="translate(531.34 63.72)">
    <path d="m0 0-3.413 7.734-3.414-7.734zm1.78-4.031-1.398 3.123h-7.59l-1.379-3.123h-1.054l5.702 12.709h1.071l5.701-12.709z" fill="#fff"/>
   </g>
   <g transform="translate(537.08 71.473)">
    <path d="m0 0v-10.841h3.323c3.777 0 5.519 2.833 5.465 5.557-0.055 2.651-1.797 5.284-5.465 5.284zm9.768-5.284c0.073-3.233-1.997-6.5-6.445-6.5h-4.303v12.709h4.303c4.303 0 6.373-3.086 6.445-6.209" fill="#fff"/>
   </g>
   <g transform="translate(306.29 45.685)">
    <path d="m0 0h6.976v-0.833h-6.976v-4.696h7.521v-0.885h-8.423v11.91h8.218v-0.868h-7.316z" fill="#fff"/>
   </g>
   <g transform="translate(316.6 51.181)">
    <path d="m0 0 8.013-9.853v9.853h0.902v-11.91h-0.358l-8.03 9.834v-9.834h-0.92v11.91z" fill="#fff"/>
   </g>
   <g transform="translate(333.77 51.181)">
    <path d="m0 0v-11.043h6.704v-0.867h-7.622v11.91z" fill="#fff"/>
   </g>
   <g transform="translate(350.02 43.048)">
    <path d="m0 0-3.199 7.248-3.198-7.248zm1.667-3.777-1.309 2.926h-7.113l-1.293-2.926h-0.987l5.343 11.91h1.004l5.342-11.91z" fill="#fff"/>
   </g>
   <g transform="translate(359.6 45.685)">
    <path d="m0 0h6.975v-0.833h-6.975v-4.696h7.521v-0.885h-8.423v11.91h8.218v-0.868h-7.316z" fill="#fff"/>
   </g>
   <g transform="translate(379.54 49.854)">
    <path d="m0 0-4.561-6.977h-0.305l-4.594 6.977v-10.583h-0.919v11.91h1.088l4.561-6.942 4.508 6.942h1.124v-11.91h-0.902z" fill="#fff"/>
   </g>
   <g transform="translate(383.98 50.331)">
    <path d="m0 0v-6.108h4.305c3.965 0 3.965 6.108 0 6.108zm0-6.942v-4.118h-0.918v11.911h5.223c5.173 0 5.173-7.793 0-7.793z" fill="#fff"/>
   </g>
   <g transform="translate(395.12 44.648)">
    <path d="m0 0h4.219c2.076 0 2.994 1.173 3.012 2.841 0.017 1.395-0.936 2.842-2.91 2.842h-4.321zm8.575-5.377h-1.209l-4.117 4.508h-3.249v-4.508h-0.919v11.91h5.24c2.587 0 3.896-1.855 3.914-3.71 0.016-1.939-1.26-3.64-3.863-3.64z" fill="#fff"/>
   </g>
   <g transform="translate(406.13 45.685)">
    <path d="m0 0h6.976v-0.833h-6.976v-4.696h7.521v-0.885h-8.422v11.91h8.218v-0.868h-7.317z" fill="#fff"/>
   </g>
   <g transform="translate(423.76 48.884)">
    <path d="m0 0c-0.868 1.396-2.263 1.6-3.607 1.616-1.394 0-3.607-0.511-3.607-2.416 0-1.514 1.633-1.871 3.641-2.246 2.297-0.443 4.679-0.85 4.679-3.421-0.017-2.687-2.722-3.334-4.713-3.334-1.854 0-3.965 0.766-4.883 2.587l0.817 0.407c0.732-1.445 2.603-2.16 4.066-2.16s3.794 0.408 3.794 2.519c0.017 1.786-1.956 2.177-3.914 2.552-2.177 0.425-4.406 0.867-4.406 3.061-0.051 2.52 2.57 3.302 4.526 3.302 1.702 0 3.182-0.273 4.356-2.026z" fill="#fff"/>
   </g>
   <g transform="translate(434.61 43.048)">
    <path d="m0 0-3.199 7.248-3.198-7.248zm1.667-3.777-1.309 2.926h-7.113l-1.293-2.926h-0.987l5.343 11.91h1.004l5.342-11.91z" fill="#fff"/>
   </g>
   <g transform="translate(451.1 43.048)">
    <path d="m0 0-3.199 7.248-3.198-7.248zm1.667-3.777-1.309 2.926h-7.113l-1.293-2.926h-0.987l5.343 11.91h1.004l5.342-11.91z" fill="#fff"/>
   </g>
   <g transform="translate(456.21 44.648)">
    <path d="m0 0h4.22c2.075 0 2.994 1.173 3.011 2.841 0.017 1.395-0.936 2.842-2.91 2.842h-4.321zm8.575-5.377h-1.208l-4.118 4.508h-3.249v-4.508h-0.919v11.91h5.24c2.587 0 3.896-1.855 3.914-3.71 0.017-1.939-1.259-3.64-3.862-3.64z" fill="#fff"/>
   </g>
   <g transform="translate(474.12 43.048)">
    <path d="m0 0-3.199 7.248-3.198-7.248zm1.667-3.777-1.309 2.926h-7.113l-1.293-2.926h-0.987l5.343 11.91h1.004l5.342-11.91z" fill="#fff"/>
   </g>
   <g transform="translate(487.14 48.986)">
    <path d="m0 0c-1.038 1.021-2.484 1.532-3.829 1.532-3.488 0-5.274-2.553-5.257-5.309 0-2.808 1.787-5.224 5.257-5.224 1.277 0 2.604 0.442 3.625 1.378v3.336h-4.152v0.8h5.02v-4.459c-1.242-1.242-2.722-1.922-4.493-1.922-4.048 0-6.142 2.824-6.142 6.074-0.017 3.727 2.519 6.159 6.142 6.159 1.566 0 3.149-0.594 4.356-1.787z" fill="#fff"/>
   </g>
   <g transform="translate(490.68 45.226)">
    <path d="m0 0c0.018-2.688 1.719-5.309 5.104-5.309 3.404 0 5.122 2.621 5.122 5.309 0 2.756-1.702 5.292-5.122 5.292-3.419 0-5.121-2.485-5.104-5.292m11.111-0.018c-0.017-3.13-2.007-6.141-6.007-6.141-3.997 0-6.005 3.028-6.005 6.176 0 3.199 1.99 6.126 6.005 6.126 4.016 0 6.023-2.945 6.007-6.161" fill="#fff"/>
   </g>
   <g transform="translate(504.37 51.181)">
    <path d="m0 0 8.013-9.853v9.853h0.902v-11.91h-0.358l-8.03 9.834v-9.834h-0.92v11.91z" fill="#fff"/>
   </g>
   <g transform="translate(516.85 45.685)">
    <path d="m0 0h6.976v-0.833h-6.976v-4.696h7.521v-0.885h-8.422v11.91h8.218v-0.868h-7.317z" fill="#fff"/>
   </g>
   <g transform="translate(534.47 48.884)">
    <path d="m0 0c-0.867 1.396-2.263 1.6-3.607 1.616-1.395 0-3.607-0.511-3.607-2.416 0-1.514 1.633-1.871 3.641-2.246 2.297-0.443 4.679-0.85 4.679-3.421-0.017-2.687-2.722-3.334-4.713-3.334-1.854 0-3.965 0.766-4.883 2.587l0.817 0.407c0.732-1.445 2.603-2.16 4.066-2.16s3.794 0.408 3.794 2.519c0.017 1.786-1.956 2.177-3.914 2.552-2.177 0.425-4.406 0.867-4.406 3.061-0.051 2.52 2.57 3.302 4.526 3.302 1.702 0 3.182-0.273 4.356-2.026z" fill="#fff"/>
   </g>
   <g transform="translate(545.33 43.048)">
    <path d="m0 0-3.199 7.248-3.198-7.248zm1.667-3.777-1.31 2.926h-7.112l-1.293-2.926h-0.987l5.343 11.91h1.004l5.342-11.91z" fill="#fff"/>
   </g>
  </g>
 </g>
</svg>
