<svg width="210mm" height="297mm" viewBox="0 0 210 297" xmlns="http://www.w3.org/2000/svg" xmlns:xlink="http://www.w3.org/1999/xlink"><defs><clipPath id="b"><use width="100%" height="100%" xlink:href="#a"/></clipPath></defs><g transform="matrix(.35278 0 0 -.35278 -73.235 105.39)" clip-path="url(#b)"><g id="a"><path d="M0 0c6.497 0 12.679-2.457 16.964-6.742l1.289-1.289 6.625 6.418-1.357 1.33C17.161 5.95 8.808 9.383 0 9.383c-19.555 0-33.213-13.556-33.213-32.966C-33.213-42.686-19.245-56.55 0-56.55c8.934 0 17.292 3.438 23.534 9.68l1.309 1.309-6.692 6.694-1.31-1.31C12.398-44.619 6.26-47.166 0-47.166c-11.738 0-23.583 7.292-23.583 23.583S-11.738 0 0 0" fill="#e63323" transform="translate(328.54 148.23)"/><path d="M0 0c-13.378 0-23.089 9.971-23.089 23.707 0 13.665 9.711 23.583 23.089 23.583 16.224 0 23.614-12.257 23.614-23.644C23.614 12.257 16.224 0 0 0m23.089 46.823C17.604 53.155 9.347 56.797 0 56.797c-18.723 0-32.843-14.226-32.843-33.09C-32.843 4.702-18.723-9.63 0-9.63c9.195 0 17.218 3.589 23.089 10.221v-9.234h9.754v64.699h-9.754z" fill="#fff" transform="translate(390.76 100.94)"/><path transform="translate(548.56 124.59)" d="M0 0c0-11.389-7.39-23.646-23.614-23.646-13.378 0-23.089 9.971-23.089 23.708 0 13.665 9.711 23.583 23.089 23.583C-7.39 23.645 0 11.388 0 0m-.524 32.41v-9.232c-5.487 6.332-13.743 9.973-23.09 9.973-18.723 0-32.843-14.225-32.843-33.089 0-19.005 14.12-33.337 32.843-33.337 9.195 0 17.218 3.588 23.09 10.22v-9.233h9.753V32.41z" fill="#e63323"/><path d="M0 0c-5.719 0-11.315-1.429-16.186-4.133l-.953-.529v-11.552l2.982 2.296C-10.199-10.871-5.304-9.261 0-9.261c13.527 0 21.918-7.343 22.771-19.755h-39.91v-9.012h48.944l.165 1.67c1.075 10.925-1.435 20.097-7.258 26.523C18.963-3.493 10.187 0 0 0" fill="#e63323" transform="translate(451.49 157.99)"/><path d="M0 0c-3.79-5.02-12.22-8.524-20.499-8.524-5.303 0-10.209 1.55-14.188 4.485l-2.951 2.177v-11.929l.992-.52c4.795-2.515 10.379-3.845 16.147-3.845 11.274 0 21.917 4.775 27.773 12.461L8.37-4.257 1.148 1.52z" fill="#e63323" transform="translate(471.99 109.59)"/><path d="M0 0a6.546 6.546 0 00-4.63-1.907c-4.286 0-6.518 2.996-6.537 6.428-.036 3.395 2.179 6.573 6.537 6.573A6.55 6.55 0 000 9.188l-.672-.583c-1.089 1.089-2.524 1.617-3.958 1.617-3.705 0-5.611-2.615-5.593-5.665C-10.186 1.579-8.298-1-4.63-1-3.196-1-1.744-.455-.654.616z" fill="#fff" transform="translate(316.3 61.451)"/><path d="M0 0c.018-2.869 1.833-5.665 5.447-5.665 3.631 0 5.465 2.796 5.465 5.665 0 2.94-1.815 5.646-5.465 5.646C1.798 5.646-.018 2.995 0 0m11.856-.02c-.018-3.34-2.142-6.554-6.409-6.554S-.963-3.342-.963.018c0 3.414 2.125 6.537 6.41 6.537 4.284 0 6.427-3.142 6.409-6.575" fill="#fff" transform="translate(319 66.044)"/><path d="M0 0l8.552-10.513V0h.963v-12.709h-.382L.562-2.214v-10.495h-.979V0z" fill="#fff" transform="translate(333.61 72.398)"/><path d="M0 0h7.318v-.926H0v-5.755h-.98V6.046h8.552v-.981H0z" fill="#fff" transform="translate(346.93 66.352)"/><path d="M0 0h7.444v-.89H0v-5.011h8.024v-.944H-.963V5.864h8.771v-.925H0z" fill="#fff" transform="translate(357.62 66.534)"/><path d="M0 0h4.503c2.215 0 3.196 1.253 3.213 3.032.019 1.489-.998 3.032-3.104 3.032H0zm9.151-5.737H7.863L3.468-.926H0v-4.811h-.98V6.972h5.592c2.76 0 4.158-1.979 4.177-3.958C8.807.944 7.445-.871 4.667-.871z" fill="#fff" transform="translate(368.8 65.426)"/><path d="M0 0h7.444v-.89H0v-5.011h8.024v-.944H-.963V5.864h8.771v-.925H0z" fill="#fff" transform="translate(380.54 66.534)"/><path d="M0 0l8.552-10.513V0h.963v-12.709h-.381L.563-2.214v-10.495h-.98V0z" fill="#fff" transform="translate(391.54 72.398)"/><path d="M0 0a6.545 6.545 0 00-4.63-1.907c-4.285 0-6.518 2.996-6.536 6.428-.037 3.395 2.178 6.573 6.536 6.573 1.67 0 3.359-.636 4.63-1.906l-.672-.583c-1.089 1.089-2.524 1.617-3.958 1.617-3.704 0-5.611-2.615-5.592-5.665C-10.186 1.579-8.298-1-4.63-1-3.196-1-1.744-.455-.653.616z" fill="#fff" transform="translate(414.37 61.451)"/><path d="M416.69 72.398h.963V59.689h-.963z" fill="#fff"/><path d="M0 0l-3.413 7.734L-6.827 0zm1.78-4.031L.382-.908h-7.59l-1.379-3.123h-1.054l5.702 12.709h1.071L2.833-4.031z" fill="#fff" transform="translate(428.78 63.72)"/><path d="M0 0v-10.841h3.323c3.777 0 5.519 2.833 5.465 5.557C8.733-2.633 6.991 0 3.323 0zm9.768-5.284c.073-3.233-1.997-6.5-6.445-6.5H-.98V.925h4.303c4.302 0 6.373-3.086 6.445-6.209" fill="#fff" transform="translate(438.92 71.473)"/><path d="M0 0h7.444v-.89H0v-5.011h8.024v-.944H-.963V5.864h8.77v-.925H0z" fill="#fff" transform="translate(451.87 66.534)"/><path d="M0 0l-3.413 7.734L-6.827 0zm1.78-4.031L.381-.908h-7.589l-1.379-3.123h-1.054l5.702 12.709h1.071L2.833-4.031z" fill="#fff" transform="translate(475.37 63.72)"/><path d="M0 0c-1.108 1.089-2.651 1.634-4.085 1.634-3.723 0-5.629-2.723-5.61-5.665 0-2.995 1.906-5.574 5.61-5.574 1.362 0 2.778.473 3.868 1.471v3.559h-4.431v.853H.708v-4.757c-1.325-1.326-2.905-2.052-4.793-2.052-4.322 0-6.555 3.014-6.555 6.482-.018 3.976 2.687 6.572 6.555 6.572 1.67 0 3.359-.634 4.647-1.906z" fill="#fff" transform="translate(489.26 70.056)"/><path d="M492.63 72.398h.963V59.689h-.963z" fill="#fff"/><path d="M0 0v-11.783h7.154v-.926H-.98V0z" fill="#fff" transform="translate(497.37 72.398)"/><path d="M506.38 72.398h.963V59.689h-.963z" fill="#fff"/><path d="M0 0v-10.841h3.323c3.777 0 5.519 2.833 5.465 5.557C8.734-2.633 6.991 0 3.323 0zm9.769-5.284c.072-3.233-1.998-6.5-6.446-6.5H-.98V.925h4.303c4.303 0 6.373-3.086 6.446-6.209" fill="#fff" transform="translate(511.03 71.473)"/><path d="M0 0l-3.413 7.734L-6.827 0zm1.78-4.031L.382-.908h-7.59l-1.379-3.123h-1.054l5.702 12.709h1.071L2.833-4.031z" fill="#fff" transform="translate(531.34 63.72)"/><path d="M0 0v-10.841h3.323c3.777 0 5.519 2.833 5.465 5.557C8.733-2.633 6.991 0 3.323 0zm9.768-5.284c.073-3.233-1.997-6.5-6.445-6.5H-.98V.925h4.303c4.303 0 6.373-3.086 6.445-6.209" fill="#fff" transform="translate(537.08 71.473)"/><path d="M0 0h6.976v-.833H0v-4.696h7.521v-.885H-.902v11.91h8.218v-.868H0z" fill="#fff" transform="translate(306.29 45.685)"/><path d="M0 0l8.013-9.853V0h.902v-11.91h-.358L.527-2.076v-9.834h-.92V0z" fill="#fff" transform="translate(316.6 51.181)"/><path d="M0 0v-11.043h6.704v-.867H-.918V0z" fill="#fff" transform="translate(333.77 51.181)"/><path d="M0 0l-3.199 7.248L-6.397 0zm1.667-3.777L.358-.851h-7.113l-1.293-2.926h-.987l5.343 11.91h1.004l5.342-11.91z" fill="#fff" transform="translate(350.02 43.048)"/><path d="M0 0h6.975v-.833H0v-4.696h7.521v-.885H-.902v11.91h8.218v-.868H0z" fill="#fff" transform="translate(359.6 45.685)"/><path d="M0 0l-4.561-6.977h-.305L-9.46 0v-10.583h-.919v11.91h1.088l4.561-6.942 4.508 6.942H.902v-11.91H0z" fill="#fff" transform="translate(379.54 49.854)"/><path d="M0 0v-6.108h4.305C8.27-6.108 8.27 0 4.305 0zm0-6.942v-4.118h-.918V.851h5.223c5.173 0 5.173-7.793 0-7.793z" fill="#fff" transform="translate(383.98 50.331)"/><path d="M0 0h4.219c2.076 0 2.994 1.173 3.012 2.841.017 1.395-.936 2.842-2.91 2.842H0zm8.575-5.377H7.366L3.249-.869H0v-4.508h-.919v11.91h5.24c2.587 0 3.896-1.855 3.914-3.71.016-1.939-1.26-3.64-3.863-3.64z" fill="#fff" transform="translate(395.12 44.648)"/><path d="M0 0h6.976v-.833H0v-4.696h7.521v-.885H-.901v11.91h8.218v-.868H0z" fill="#fff" transform="translate(406.13 45.685)"/><path d="M0 0c-.868 1.396-2.263 1.6-3.607 1.616-1.394 0-3.607-.511-3.607-2.416 0-1.514 1.633-1.871 3.641-2.246 2.297-.443 4.679-.85 4.679-3.421-.017-2.687-2.722-3.334-4.713-3.334-1.854 0-3.965.766-4.883 2.587l.817.407c.732-1.445 2.603-2.16 4.066-2.16S.187-8.559.187-6.448c.017 1.786-1.956 2.177-3.914 2.552-2.177.425-4.406.867-4.406 3.061-.051 2.52 2.57 3.302 4.526 3.302 1.702 0 3.182-.273 4.356-2.026z" fill="#fff" transform="translate(423.76 48.884)"/><path d="M0 0l-3.199 7.248L-6.397 0zm1.667-3.777L.358-.851h-7.113l-1.293-2.926h-.987l5.343 11.91h1.004l5.342-11.91z" fill="#fff" transform="translate(434.61 43.048)"/><path d="M0 0l-3.199 7.248L-6.397 0zm1.667-3.777L.358-.851h-7.113l-1.293-2.926h-.987l5.343 11.91h1.004l5.342-11.91z" fill="#fff" transform="translate(451.1 43.048)"/><path d="M0 0h4.22c2.075 0 2.994 1.173 3.011 2.841.017 1.395-.936 2.842-2.91 2.842H0zm8.575-5.377H7.367L3.249-.869H0v-4.508h-.919v11.91h5.24c2.587 0 3.896-1.855 3.914-3.71.017-1.939-1.259-3.64-3.862-3.64z" fill="#fff" transform="translate(456.21 44.648)"/><path d="M0 0l-3.199 7.248L-6.397 0zm1.667-3.777L.358-.851h-7.113l-1.293-2.926h-.987l5.343 11.91h1.004l5.342-11.91z" fill="#fff" transform="translate(474.12 43.048)"/><path d="M0 0c-1.038 1.021-2.484 1.532-3.829 1.532-3.488 0-5.274-2.553-5.257-5.309 0-2.808 1.787-5.224 5.257-5.224 1.277 0 2.604.442 3.625 1.378v3.336h-4.152v.8h5.02v-4.459C-.578-9.188-2.058-9.868-3.829-9.868c-4.048 0-6.142 2.824-6.142 6.074-.017 3.727 2.519 6.159 6.142 6.159A6.19 6.19 0 00.527.578z" fill="#fff" transform="translate(487.14 48.986)"/><path d="M0 0c.018-2.688 1.719-5.309 5.104-5.309 3.404 0 5.122 2.621 5.122 5.309 0 2.756-1.702 5.292-5.122 5.292C1.685 5.292-.017 2.807 0 0m11.111-.018c-.017-3.13-2.007-6.141-6.007-6.141-3.997 0-6.005 3.028-6.005 6.176 0 3.199 1.99 6.126 6.005 6.126 4.016 0 6.023-2.945 6.007-6.161" fill="#fff" transform="translate(490.68 45.226)"/><path d="M0 0l8.013-9.853V0h.902v-11.91h-.358L.527-2.076v-9.834h-.92V0z" fill="#fff" transform="translate(504.37 51.181)"/><path d="M0 0h6.976v-.833H0v-4.696h7.521v-.885H-.901v11.91h8.218v-.868H0z" fill="#fff" transform="translate(516.85 45.685)"/><path d="M0 0c-.867 1.396-2.263 1.6-3.607 1.616-1.395 0-3.607-.511-3.607-2.416 0-1.514 1.633-1.871 3.641-2.246 2.297-.443 4.679-.85 4.679-3.421-.017-2.687-2.722-3.334-4.713-3.334-1.854 0-3.965.766-4.883 2.587l.817.407c.732-1.445 2.603-2.16 4.066-2.16S.187-8.559.187-6.448c.017 1.786-1.956 2.177-3.914 2.552-2.177.425-4.406.867-4.406 3.061-.051 2.52 2.57 3.302 4.526 3.302 1.702 0 3.182-.273 4.356-2.026z" fill="#fff" transform="translate(534.47 48.884)"/><path d="M0 0l-3.199 7.248L-6.397 0zm1.667-3.777L.357-.851h-7.112l-1.293-2.926h-.987l5.343 11.91h1.004l5.342-11.91z" fill="#fff" transform="translate(545.33 43.048)"/></g></g></svg>